# xmcd
#
# Track frame offsets: 
#        150
#        20063
#        39871
#        61421
#        78666
#        95514
#        114099
#
# Disc length: 1722 seconds
#
# Revision: 1
# Processed by: cddbd v1.5.2PL0 Copyright (c) Steve Scherf et al.
# Submitted via: ExactAudioCopy v1.0b1
#
DISCID=4e06b807
DTITLE=Pham Quynh Anh - Vol.2 - No Ai Do Ca The Gioi
DYEAR=2008
DGENRE=Pop
TTITLE0=Bui Bay Vao Mat (Quang Huy, Hamlet Truong)
TTITLE1=Tinh Yeu Cao Thuong (Hamlet Truong)
TTITLE2=Dem (Hamlet Truong)
TTITLE3=Sai Them Sai (Hamlet Truong)
TTITLE4=Yeu Khong Hoi Tiec (Hamlet Truong)
TTITLE5=Nuoc Trong Nguon (Quang Huy)
TTITLE6=No Ai Do Ca The Gioi (Quang Huy, Hamlet Truong)
EXTD=
EXTT0=
EXTT1=
EXTT2=
EXTT3=
EXTT4=
EXTT5=
EXTT6=
PLAYORDER=
